<svg width="142" height="60" viewBox="0 0 142 60" fill="none" xmlns="http://www.w3.org/2000/svg">
<path d="M57.3372 35.728C57.3372 35.024 57.3692 34.384 57.4332 33.808L57.3692 33.712C56.7718 33.7973 56.1212 33.8613 55.4172 33.904C54.7132 33.9253 54.0625 33.9253 53.4652 33.904V29.744L61.8172 29.712V40.592C60.8358 41.04 59.7158 41.392 58.4572 41.648C57.2198 41.8827 55.6412 42 53.7212 42C51.1612 42 49.1558 41.6587 47.7052 40.976C46.2545 40.272 45.2305 39.152 44.6332 37.616C44.0358 36.0587 43.7372 33.9893 43.7372 31.408C43.7372 29.3173 43.9718 27.6 44.4412 26.256C44.9318 24.912 45.6358 23.8773 46.5532 23.152C47.4918 22.4053 48.6332 21.8933 49.9772 21.616C51.3212 21.3173 52.8572 21.168 54.5852 21.168C55.6092 21.168 56.6332 21.2107 57.6572 21.296C58.7025 21.3813 59.7372 21.5413 60.7612 21.776V26L60.6652 26.064C59.7692 25.8507 58.8732 25.7013 57.9772 25.616C57.1025 25.5307 56.2172 25.488 55.3212 25.488C54.0198 25.488 52.8785 25.6267 51.8972 25.904C50.9372 26.16 50.1905 26.704 49.6572 27.536C49.1238 28.368 48.8572 29.6587 48.8572 31.408C48.8572 33.136 48.9958 34.4587 49.2732 35.376C49.5718 36.272 50.1158 36.8907 50.9052 37.232C51.7158 37.552 52.8678 37.712 54.3612 37.712C54.5532 37.712 54.8518 37.712 55.2572 37.712C55.6625 37.6907 56.0678 37.6693 56.4732 37.648C56.8785 37.6267 57.1665 37.5947 57.3372 37.552V35.728ZM70.4659 42C68.5032 42 67.1059 41.4773 66.2739 40.432C65.4419 39.3867 65.0259 37.8933 65.0259 35.952V26.128H70.1459L70.1779 34.704C70.1779 35.664 70.3486 36.3467 70.6899 36.752C71.0312 37.136 71.7246 37.328 72.7699 37.328C73.7726 37.328 74.4446 37.1573 74.7859 36.816C75.1486 36.4533 75.3406 35.8453 75.3619 34.992V26.128H80.4819V41.712H75.6179L75.3619 39.952H75.2659C74.9886 40.5707 74.4232 41.072 73.5699 41.456C72.7166 41.8187 71.6819 42 70.4659 42ZM90.2347 25.968C92.2827 25.968 93.936 26.1813 95.1947 26.608C96.4533 27.0347 97.3707 27.824 97.9467 28.976C98.544 30.1067 98.8427 31.7493 98.8427 33.904V41.712H94.2027L94.0427 40.24H93.9467C93.5413 40.7733 92.912 41.2 92.0587 41.52C91.2053 41.84 90.096 42 88.7307 42C85.04 42 83.1947 40.272 83.1947 36.816C83.1947 35.344 83.6747 34.192 84.6347 33.36C85.616 32.5067 87.152 32.08 89.2427 32.08H93.9787C93.8293 31.184 93.4453 30.5867 92.8267 30.288C92.208 29.968 91.152 29.808 89.6587 29.808C88.72 29.808 87.792 29.8827 86.8747 30.032C85.9787 30.16 85.1893 30.3093 84.5067 30.48L84.4107 30.416L84.4427 26.704C84.8693 26.576 85.4133 26.4587 86.0747 26.352C86.736 26.224 87.4293 26.128 88.1547 26.064C88.9013 26 89.5947 25.968 90.2347 25.968ZM90.0427 38.224C91.3653 38.224 92.3573 38.064 93.0187 37.744C93.68 37.4027 94.0213 36.8693 94.0427 36.144V35.344H90.4267C89.488 35.344 88.8267 35.4827 88.4427 35.76C88.08 36.016 87.8987 36.368 87.8987 36.816C87.8987 37.3493 88.0907 37.7227 88.4747 37.936C88.8587 38.128 89.3813 38.224 90.0427 38.224ZM107.31 41.712H102.19V26.128H106.35L106.766 29.328H106.862C107.054 28.1333 107.512 27.28 108.238 26.768C108.963 26.2347 110.04 25.968 111.47 25.968C112.046 25.968 112.568 26 113.038 26.064C113.507 26.1067 113.902 26.1493 114.222 26.192V31.184L114.158 31.248C113.816 31.1627 113.422 31.088 112.974 31.024C112.547 30.96 112.056 30.928 111.502 30.928C110.712 30.928 109.998 31.056 109.358 31.312C108.739 31.568 108.248 32.0693 107.886 32.816C107.544 33.5413 107.374 34.6293 107.374 36.08L107.31 41.712ZM126.199 41.712L126.007 39.44H125.879C125.516 40.2933 124.994 40.9333 124.311 41.36C123.65 41.7867 122.679 42 121.399 42C119.33 42 117.815 41.4027 116.855 40.208C115.895 38.992 115.394 37.168 115.351 34.736C115.33 32.56 115.554 30.832 116.023 29.552C116.492 28.272 117.228 27.3547 118.231 26.8C119.234 26.2453 120.514 25.968 122.071 25.968C122.882 25.968 123.618 26.0427 124.279 26.192C124.94 26.32 125.474 26.5013 125.879 26.736L125.943 26.704V20.176H131.063V41.712H126.199ZM123.063 37.648C123.916 37.648 124.61 37.3813 125.143 36.848C125.676 36.3147 125.943 35.4293 125.943 34.192V30.832C125.154 30.512 124.226 30.352 123.159 30.352C122.156 30.352 121.431 30.5973 120.983 31.088C120.556 31.5573 120.343 32.5173 120.343 33.968C120.343 35.2053 120.514 36.1333 120.855 36.752C121.218 37.3493 121.954 37.648 123.063 37.648Z" fill="black"/>
<path d="M8.00813 24.3945C8.00813 18.1055 9.60318 13.1107 12.7933 9.41016C15.9834 5.70964 20.5863 3.85938 26.6019 3.85938C30.0654 3.85938 33.0003 4.39714 35.4066 5.47266C37.8128 6.54818 39.5081 8.10677 40.4925 10.1484C41.1488 11.4974 41.0394 12.4089 40.1644 12.8828L36.8831 14.6328C35.7347 15.2526 34.7868 14.9062 34.0394 13.5938C33.5654 12.7552 32.6813 11.9987 31.387 11.3242C30.111 10.6497 28.6071 10.3125 26.8753 10.3125C23.0472 10.3125 20.3675 11.5247 18.8363 13.9492C17.305 16.3555 16.5394 19.8372 16.5394 24.3945C16.5394 28.9518 17.305 32.4427 18.8363 34.8672C20.3675 37.2734 23.0472 38.4766 26.8753 38.4766C28.9352 38.4766 30.667 38.0117 32.0706 37.082C33.4925 36.1523 34.4769 35.2682 35.0238 34.4297C35.917 33.0625 36.8649 32.7161 37.8675 33.3906L41.1488 35.5781C42.042 36.1797 42.1331 37.0911 41.4222 38.3125C40.3649 40.1354 38.5511 41.694 35.9808 42.9883C33.4105 44.2826 30.2842 44.9297 26.6019 44.9297C20.6774 44.9297 16.0928 43.0794 12.848 39.3789C9.62141 35.6784 8.00813 30.6836 8.00813 24.3945Z" fill="black"/>
</svg>
